<svg width="53" height="54" viewBox="0 0 53 54" fill="none" xmlns="http://www.w3.org/2000/svg">
<path d="M50.0747 0.380127H2.92531C2.14947 0.380127 1.4054 0.688328 0.856802 1.23693C0.308201 1.78553 0 2.52959 0 3.30543V50.4556C0.000195197 51.2313 0.308483 51.9751 0.857063 52.5236C1.40564 53.072 2.14959 53.3801 2.92531 53.3801H28.3086V32.8559H21.4017V24.8573H28.3086V18.9581C28.3086 12.1123 32.4897 8.38533 38.5965 8.38533C41.5218 8.38533 44.0356 8.60249 44.7688 8.70039V15.8547L40.5332 15.8569C37.2119 15.8569 36.5693 17.4351 36.5693 19.7509V24.858H44.4898L43.4585 32.8566H36.5693V53.3801H50.0754C50.8511 53.3799 51.595 53.0716 52.1435 52.5231C52.6919 51.9745 53 51.2305 53 50.4548V3.30543C53 2.52959 52.6918 1.78553 52.1432 1.23693C51.5946 0.688328 50.8505 0.380127 50.0747 0.380127Z" fill="#B5B5B5"/>
</svg>
