<svg width="356" height="155" viewBox="0 0 356 155" fill="none" xmlns="http://www.w3.org/2000/svg">
<g filter="url(#filter0_d_66_887)">
<rect x="7.25977" y="6" width="341.48" height="139" rx="8.69518" fill="white"/>
</g>
<path d="M26.9751 28.1742L28.5395 32.7523H28.6027L30.1671 28.1742H31.0839L29.061 33.7953H28.0812L26.0583 28.1742H26.9751ZM31.8297 33.7953V29.5794H32.6504V33.7953H31.8297ZM32.2442 28.929C32.1015 28.929 31.9789 28.8814 31.8764 28.7862C31.7758 28.6893 31.7254 28.574 31.7254 28.4404C31.7254 28.305 31.7758 28.1897 31.8764 28.0946C31.9789 27.9976 32.1015 27.9491 32.2442 27.9491C32.3869 27.9491 32.5086 27.9976 32.6092 28.0946C32.7117 28.1897 32.7629 28.305 32.7629 28.4404C32.7629 28.574 32.7117 28.6893 32.6092 28.7862C32.5086 28.8814 32.3869 28.929 32.2442 28.929ZM36.9136 30.6087L36.1698 30.7404C36.1387 30.6453 36.0893 30.5547 36.0216 30.4687C35.9557 30.3827 35.866 30.3123 35.7526 30.2574C35.6391 30.2025 35.4973 30.175 35.3272 30.175C35.0948 30.175 34.9008 30.2272 34.7453 30.3315C34.5897 30.434 34.512 30.5666 34.512 30.7295C34.512 30.8704 34.5641 30.9838 34.6684 31.0698C34.7727 31.1558 34.9411 31.2263 35.1735 31.2812L35.8432 31.4349C36.2311 31.5245 36.5202 31.6627 36.7105 31.8493C36.9008 32.0359 36.9959 32.2784 36.9959 32.5766C36.9959 32.8292 36.9227 33.0542 36.7764 33.2518C36.6318 33.4476 36.4296 33.6013 36.1698 33.7129C35.9118 33.8246 35.6126 33.8804 35.2723 33.8804C34.8002 33.8804 34.415 33.7797 34.1167 33.5785C33.8185 33.3754 33.6355 33.0872 33.5678 32.7139L34.361 32.5931C34.4104 32.7999 34.512 32.9563 34.6657 33.0625C34.8194 33.1668 35.0198 33.2189 35.2668 33.2189C35.5358 33.2189 35.7508 33.1631 35.9118 33.0515C36.0728 32.938 36.1533 32.7999 36.1533 32.637C36.1533 32.5053 36.1039 32.3946 36.0051 32.3049C35.9081 32.2153 35.759 32.1476 35.5577 32.1018L34.8441 31.9454C34.4507 31.8557 34.1597 31.713 33.9713 31.5172C33.7846 31.3214 33.6913 31.0735 33.6913 30.7734C33.6913 30.5245 33.7609 30.3068 33.8999 30.1201C34.039 29.9335 34.2311 29.788 34.4763 29.6837C34.7215 29.5776 35.0024 29.5246 35.3189 29.5246C35.7745 29.5246 36.1332 29.6234 36.3948 29.821C36.6565 30.0168 36.8294 30.2793 36.9136 30.6087ZM40.5688 32.0469V29.5794H41.3922V33.7953H40.5853V33.0652H40.5414C40.4444 33.2903 40.2889 33.4778 40.0748 33.6279C39.8625 33.7761 39.5981 33.8502 39.2816 33.8502C39.0108 33.8502 38.7711 33.7907 38.5625 33.6718C38.3557 33.551 38.1928 33.3726 38.0739 33.1366C37.9568 32.9005 37.8982 32.6087 37.8982 32.261V29.5794H38.7189V32.1622C38.7189 32.4495 38.7985 32.6782 38.9577 32.8484C39.1169 33.0185 39.3237 33.1036 39.578 33.1036C39.7317 33.1036 39.8845 33.0652 40.0364 32.9883C40.1901 32.9115 40.3172 32.7953 40.4179 32.6398C40.5203 32.4842 40.5707 32.2866 40.5688 32.0469ZM43.7218 33.8886C43.4546 33.8886 43.2131 33.8392 42.9972 33.7404C42.7813 33.6398 42.6102 33.4943 42.4839 33.304C42.3595 33.1137 42.2973 32.8804 42.2973 32.6041C42.2973 32.3662 42.343 32.1704 42.4345 32.0167C42.526 31.863 42.6495 31.7413 42.8051 31.6517C42.9606 31.562 43.1344 31.4943 43.3266 31.4486C43.5187 31.4028 43.7145 31.3681 43.9139 31.3443C44.1664 31.315 44.3714 31.2912 44.5287 31.2729C44.6861 31.2528 44.8005 31.2208 44.8718 31.1769C44.9432 31.1329 44.9789 31.0616 44.9789 30.9628V30.9436C44.9789 30.7039 44.9112 30.5181 44.7757 30.3864C44.6422 30.2546 44.4427 30.1888 44.1774 30.1888C43.9011 30.1888 43.6834 30.2501 43.5242 30.3727C43.3668 30.4934 43.2579 30.6279 43.1976 30.7761L42.4263 30.6005C42.5178 30.3443 42.6514 30.1375 42.827 29.9802C43.0045 29.821 43.2085 29.7057 43.4391 29.6343C43.6696 29.5611 43.9121 29.5246 44.1664 29.5246C44.3348 29.5246 44.5132 29.5447 44.7016 29.5849C44.8919 29.6234 45.0694 29.6947 45.2341 29.799C45.4006 29.9033 45.5369 30.0524 45.6431 30.2464C45.7492 30.4385 45.8023 30.6883 45.8023 30.9957V33.7953H45.0008V33.2189H44.9679C44.9148 33.325 44.8352 33.4293 44.7291 33.5318C44.623 33.6343 44.4866 33.7194 44.3201 33.7871C44.1536 33.8548 43.9542 33.8886 43.7218 33.8886ZM43.9002 33.2299C44.1271 33.2299 44.321 33.1851 44.4821 33.0954C44.6449 33.0057 44.7684 32.8886 44.8526 32.7441C44.9386 32.5977 44.9816 32.4412 44.9816 32.2747V31.7313C44.9523 31.7606 44.8956 31.788 44.8114 31.8136C44.7291 31.8374 44.6349 31.8585 44.5287 31.8768C44.4226 31.8932 44.3192 31.9088 44.2186 31.9234C44.1179 31.9362 44.0338 31.9472 43.9661 31.9563C43.8069 31.9765 43.6614 32.0103 43.5297 32.0579C43.3997 32.1055 43.2954 32.1741 43.2168 32.2638C43.1399 32.3516 43.1015 32.4687 43.1015 32.6151C43.1015 32.8182 43.1765 32.9719 43.3266 33.0762C43.4766 33.1786 43.6678 33.2299 43.9002 33.2299ZM47.716 28.1742V33.7953H46.8953V28.1742H47.716ZM48.8201 33.7953V29.5794H49.6407V33.7953H48.8201ZM49.2345 28.929C49.0918 28.929 48.9692 28.8814 48.8667 28.7862C48.7661 28.6893 48.7158 28.574 48.7158 28.4404C48.7158 28.305 48.7661 28.1897 48.8667 28.0946C48.9692 27.9976 49.0918 27.9491 49.2345 27.9491C49.3772 27.9491 49.4989 27.9976 49.5995 28.0946C49.702 28.1897 49.7532 28.305 49.7532 28.4404C49.7532 28.574 49.702 28.6893 49.5995 28.7862C49.4989 28.8814 49.3772 28.929 49.2345 28.929ZM50.6569 33.7953V33.2326L52.9405 30.3315V30.2931H50.731V29.5794H53.9643V30.1778L51.7685 33.0432V33.0817H54.0411V33.7953H50.6569ZM56.2362 33.8886C55.9691 33.8886 55.7275 33.8392 55.5116 33.7404C55.2957 33.6398 55.1246 33.4943 54.9983 33.304C54.8739 33.1137 54.8117 32.8804 54.8117 32.6041C54.8117 32.3662 54.8575 32.1704 54.9489 32.0167C55.0404 31.863 55.1639 31.7413 55.3195 31.6517C55.475 31.562 55.6488 31.4943 55.841 31.4486C56.0331 31.4028 56.2289 31.3681 56.4283 31.3443C56.6808 31.315 56.8858 31.2912 57.0431 31.2729C57.2005 31.2528 57.3149 31.2208 57.3862 31.1769C57.4576 31.1329 57.4933 31.0616 57.4933 30.9628V30.9436C57.4933 30.7039 57.4256 30.5181 57.2902 30.3864C57.1566 30.2546 56.9571 30.1888 56.6918 30.1888C56.4155 30.1888 56.1978 30.2501 56.0386 30.3727C55.8812 30.4934 55.7723 30.6279 55.712 30.7761L54.9407 30.6005C55.0322 30.3443 55.1658 30.1375 55.3414 29.9802C55.5189 29.821 55.7229 29.7057 55.9535 29.6343C56.1841 29.5611 56.4265 29.5246 56.6808 29.5246C56.8492 29.5246 57.0276 29.5447 57.2161 29.5849C57.4064 29.6234 57.5838 29.6947 57.7485 29.799C57.915 29.9033 58.0514 30.0524 58.1575 30.2464C58.2636 30.4385 58.3167 30.6883 58.3167 30.9957V33.7953H57.5152V33.2189H57.4823C57.4292 33.325 57.3496 33.4293 57.2435 33.5318C57.1374 33.6343 57.0011 33.7194 56.8345 33.7871C56.668 33.8548 56.4686 33.8886 56.2362 33.8886ZM56.4146 33.2299C56.6415 33.2299 56.8355 33.1851 56.9965 33.0954C57.1593 33.0057 57.2828 32.8886 57.367 32.7441C57.453 32.5977 57.496 32.4412 57.496 32.2747V31.7313C57.4667 31.7606 57.41 31.788 57.3258 31.8136C57.2435 31.8374 57.1493 31.8585 57.0431 31.8768C56.937 31.8932 56.8336 31.9088 56.733 31.9234C56.6324 31.9362 56.5482 31.9472 56.4805 31.9563C56.3213 31.9765 56.1758 32.0103 56.0441 32.0579C55.9142 32.1055 55.8099 32.1741 55.7312 32.2638C55.6543 32.3516 55.6159 32.4687 55.6159 32.6151C55.6159 32.8182 55.6909 32.9719 55.841 33.0762C55.991 33.1786 56.1822 33.2299 56.4146 33.2299ZM61.1856 33.8804C60.7775 33.8804 60.4262 33.788 60.1316 33.6032C59.8388 33.4165 59.6138 33.1594 59.4564 32.8319C59.299 32.5044 59.2204 32.1293 59.2204 31.7066C59.2204 31.2784 59.3009 30.9006 59.4619 30.573C59.6229 30.2437 59.8498 29.9866 60.1426 29.8018C60.4353 29.617 60.7803 29.5246 61.1773 29.5246C61.4975 29.5246 61.783 29.584 62.0337 29.703C62.2844 29.8201 62.4865 29.9847 62.6402 30.197C62.7958 30.4093 62.8882 30.6572 62.9175 30.9408H62.1188C62.0748 30.7432 61.9742 30.573 61.8168 30.4303C61.6613 30.2876 61.4527 30.2162 61.1911 30.2162C60.9623 30.2162 60.762 30.2766 60.59 30.3974C60.4198 30.5163 60.2871 30.6865 60.192 30.9079C60.0968 31.1274 60.0493 31.3873 60.0493 31.6874C60.0493 31.9948 60.0959 32.2601 60.1892 32.4833C60.2826 32.7066 60.4143 32.8795 60.5845 33.0021C60.7565 33.1247 60.9587 33.186 61.1911 33.186C61.3466 33.186 61.4875 33.1576 61.6137 33.1009C61.7418 33.0423 61.8489 32.9591 61.9349 32.8511C62.0227 32.7432 62.084 32.6132 62.1188 32.4614H62.9175C62.8882 32.734 62.7994 32.9774 62.6512 33.1915C62.503 33.4055 62.3045 33.5739 62.0556 33.6965C61.8086 33.8191 61.5186 33.8804 61.1856 33.8804ZM60.8891 33.7733H61.4271L61.3832 33.9984C61.5424 34.024 61.6814 34.0881 61.8004 34.1905C61.9193 34.293 61.9788 34.4476 61.9788 34.6544C61.9806 34.9014 61.8736 35.1018 61.6576 35.2555C61.4436 35.4092 61.1334 35.486 60.7272 35.486L60.7107 35.0277C60.901 35.0277 61.0547 35.0002 61.1718 34.9453C61.2908 34.8904 61.3512 34.8017 61.353 34.6791C61.3548 34.5565 61.3091 34.4705 61.2158 34.4211C61.1243 34.3717 60.9779 34.3369 60.7766 34.3168L60.8891 33.7733ZM65.5709 33.8804C65.1757 33.8804 64.8307 33.7898 64.5361 33.6086C64.2415 33.4275 64.0128 33.1741 63.85 32.8484C63.6871 32.5227 63.6057 32.1421 63.6057 31.7066C63.6057 31.2693 63.6871 30.8868 63.85 30.5593C64.0128 30.2318 64.2415 29.9774 64.5361 29.7963C64.8307 29.6151 65.1757 29.5246 65.5709 29.5246C65.9661 29.5246 66.311 29.6151 66.6056 29.7963C66.9002 29.9774 67.129 30.2318 67.2918 30.5593C67.4547 30.8868 67.5361 31.2693 67.5361 31.7066C67.5361 32.1421 67.4547 32.5227 67.2918 32.8484C67.129 33.1741 66.9002 33.4275 66.6056 33.6086C66.311 33.7898 65.9661 33.8804 65.5709 33.8804ZM65.5736 33.1915C65.8298 33.1915 66.0421 33.1238 66.2104 32.9883C66.3787 32.8529 66.5032 32.6727 66.5837 32.4476C66.666 32.2226 66.7072 31.9746 66.7072 31.7038C66.7072 31.4349 66.666 31.1878 66.5837 30.9628C66.5032 30.7359 66.3787 30.5538 66.2104 30.4166C66.0421 30.2793 65.8298 30.2107 65.5736 30.2107C65.3156 30.2107 65.1015 30.2793 64.9314 30.4166C64.763 30.5538 64.6377 30.7359 64.5554 30.9628C64.4748 31.1878 64.4346 31.4349 64.4346 31.7038C64.4346 31.9746 64.4748 32.2226 64.5554 32.4476C64.6377 32.6727 64.763 32.8529 64.9314 32.9883C65.1015 33.1238 65.3156 33.1915 65.5736 33.1915ZM64.7447 29.0689L64.1931 29.0525C64.1931 28.7487 64.2745 28.5063 64.4373 28.3251C64.602 28.144 64.8051 28.0534 65.0467 28.0534C65.1583 28.0534 65.2562 28.0726 65.3403 28.111C65.4245 28.1476 65.5032 28.1906 65.5764 28.24C65.6514 28.2876 65.7255 28.3306 65.7987 28.369C65.8737 28.4056 65.957 28.4239 66.0485 28.4239C66.1546 28.4239 66.2406 28.3837 66.3065 28.3032C66.3742 28.2227 66.408 28.1229 66.408 28.004L66.9487 28.0397C66.9487 28.3452 66.8664 28.5859 66.7017 28.7615C66.537 28.9354 66.3348 29.0232 66.0951 29.025C65.9652 29.025 65.8573 29.0067 65.7713 28.9701C65.6871 28.9317 65.6121 28.8887 65.5462 28.8411C65.4803 28.7917 65.4126 28.7478 65.3431 28.7094C65.2735 28.671 65.1903 28.6517 65.0933 28.6517C64.9908 28.6517 64.9067 28.692 64.8408 28.7725C64.7768 28.8512 64.7447 28.95 64.7447 29.0689ZM70.2691 33.8804C69.8537 33.8804 69.496 33.7916 69.1959 33.6141C68.8977 33.4348 68.6671 33.1832 68.5043 32.8593C68.3433 32.5336 68.2627 32.1521 68.2627 31.7148C68.2627 31.283 68.3433 30.9024 68.5043 30.573C68.6671 30.2437 68.894 29.9866 69.185 29.8018C69.4777 29.617 69.8199 29.5246 70.2115 29.5246C70.4493 29.5246 70.6799 29.5639 70.9031 29.6426C71.1264 29.7213 71.3267 29.8448 71.5042 30.0131C71.6817 30.1814 71.8217 30.4001 71.9242 30.6691C72.0266 30.9362 72.0779 31.261 72.0779 31.6435V31.9344H68.7266V31.3196H71.2737C71.2737 31.1037 71.2298 30.9124 71.1419 30.7459C71.0541 30.5776 70.9306 30.4449 70.7714 30.348C70.614 30.251 70.4292 30.2025 70.217 30.2025C69.9864 30.2025 69.7851 30.2592 69.6131 30.3727C69.443 30.4843 69.3112 30.6307 69.2179 30.8118C69.1264 30.9911 69.0807 31.186 69.0807 31.3964V31.8768C69.0807 32.1585 69.1301 32.3982 69.2289 32.5959C69.3295 32.7935 69.4695 32.9444 69.6488 33.0487C69.8281 33.1512 70.0376 33.2024 70.2773 33.2024C70.4329 33.2024 70.5747 33.1805 70.7028 33.1366C70.8309 33.0908 70.9416 33.0231 71.0349 32.9335C71.1282 32.8438 71.1996 32.7331 71.249 32.6013L72.0257 32.7413C71.9635 32.9701 71.8519 33.1704 71.6909 33.3424C71.5317 33.5126 71.3313 33.6452 71.0898 33.7404C70.8501 33.8337 70.5765 33.8804 70.2691 33.8804ZM76.1476 30.6087L75.4037 30.7404C75.3726 30.6453 75.3232 30.5547 75.2555 30.4687C75.1897 30.3827 75.1 30.3123 74.9866 30.2574C74.8731 30.2025 74.7313 30.175 74.5611 30.175C74.3287 30.175 74.1348 30.2272 73.9792 30.3315C73.8237 30.434 73.746 30.5666 73.746 30.7295C73.746 30.8704 73.7981 30.9838 73.9024 31.0698C74.0067 31.1558 74.175 31.2263 74.4074 31.2812L75.0771 31.4349C75.465 31.5245 75.7541 31.6627 75.9444 31.8493C76.1347 32.0359 76.2299 32.2784 76.2299 32.5766C76.2299 32.8292 76.1567 33.0542 76.0103 33.2518C75.8658 33.4476 75.6636 33.6013 75.4037 33.7129C75.1457 33.8246 74.8466 33.8804 74.5062 33.8804C74.0341 33.8804 73.649 33.7797 73.3507 33.5785C73.0525 33.3754 72.8695 33.0872 72.8018 32.7139L73.595 32.5931C73.6444 32.7999 73.746 32.9563 73.8997 33.0625C74.0534 33.1668 74.2537 33.2189 74.5007 33.2189C74.7697 33.2189 74.9847 33.1631 75.1457 33.0515C75.3068 32.938 75.3873 32.7999 75.3873 32.637C75.3873 32.5053 75.3379 32.3946 75.2391 32.3049C75.1421 32.2153 74.993 32.1476 74.7917 32.1018L74.0781 31.9454C73.6847 31.8557 73.3937 31.713 73.2052 31.5172C73.0186 31.3214 72.9253 31.0735 72.9253 30.7734C72.9253 30.5245 72.9948 30.3068 73.1339 30.1201C73.2729 29.9335 73.4651 29.788 73.7103 29.6837C73.9555 29.5776 74.2363 29.5246 74.5529 29.5246C75.0085 29.5246 75.3671 29.6234 75.6288 29.821C75.8905 30.0168 76.0634 30.2793 76.1476 30.6087ZM80.7559 33.8776C80.4155 33.8776 80.1118 33.7907 79.8446 33.6169C79.5793 33.4412 79.3707 33.1915 79.2189 32.8676C79.0688 32.5419 78.9938 32.1512 78.9938 31.6956C78.9938 31.24 79.0697 30.8502 79.2216 30.5264C79.3753 30.2025 79.5857 29.9546 79.8529 29.7826C80.12 29.6106 80.4229 29.5246 80.7614 29.5246C81.023 29.5246 81.2335 29.5685 81.3927 29.6563C81.5537 29.7423 81.6781 29.8429 81.7659 29.9582C81.8556 30.0735 81.9251 30.175 81.9745 30.2629H82.0239V28.1742H82.8446V33.7953H82.0431V33.1393H81.9745C81.9251 33.229 81.8538 33.3314 81.7604 33.4467C81.669 33.562 81.5427 33.6626 81.3817 33.7486C81.2207 33.8346 81.0121 33.8776 80.7559 33.8776ZM80.937 33.1777C81.1731 33.1777 81.3725 33.1155 81.5354 32.9911C81.7001 32.8648 81.8245 32.6901 81.9087 32.4669C81.9947 32.2436 82.0377 31.9838 82.0377 31.6874C82.0377 31.3946 81.9956 31.1384 81.9114 30.9189C81.8272 30.6993 81.7037 30.5282 81.5409 30.4056C81.378 30.283 81.1767 30.2217 80.937 30.2217C80.69 30.2217 80.4842 30.2857 80.3195 30.4138C80.1548 30.5419 80.0304 30.7167 79.9462 30.9381C79.8639 31.1595 79.8227 31.4092 79.8227 31.6874C79.8227 31.9692 79.8648 32.2226 79.9489 32.4476C80.0331 32.6727 80.1575 32.8511 80.3222 32.9829C80.4887 33.1128 80.6937 33.1777 80.937 33.1777ZM84.0159 33.7953V29.5794H84.8366V33.7953H84.0159ZM84.4303 28.929C84.2876 28.929 84.165 28.8814 84.0625 28.7862C83.9619 28.6893 83.9116 28.574 83.9116 28.4404C83.9116 28.305 83.9619 28.1897 84.0625 28.0946C84.165 27.9976 84.2876 27.9491 84.4303 27.9491C84.5731 27.9491 84.6947 27.9976 84.7954 28.0946C84.8978 28.1897 84.9491 28.305 84.9491 28.4404C84.9491 28.574 84.8978 28.6893 84.7954 28.7862C84.6947 28.8814 84.5731 28.929 84.4303 28.929ZM87.1675 33.8886C86.9003 33.8886 86.6588 33.8392 86.4429 33.7404C86.227 33.6398 86.0559 33.4943 85.9296 33.304C85.8052 33.1137 85.743 32.8804 85.743 32.6041C85.743 32.3662 85.7887 32.1704 85.8802 32.0167C85.9717 31.863 86.0952 31.7413 86.2508 31.6517C86.4063 31.562 86.5801 31.4943 86.7722 31.4486C86.9644 31.4028 87.1602 31.3681 87.3596 31.3443C87.6121 31.315 87.8171 31.2912 87.9744 31.2729C88.1318 31.2528 88.2461 31.2208 88.3175 31.1769C88.3889 31.1329 88.4246 31.0616 88.4246 30.9628V30.9436C88.4246 30.7039 88.3568 30.5181 88.2214 30.3864C88.0879 30.2546 87.8884 30.1888 87.6231 30.1888C87.3468 30.1888 87.1291 30.2501 86.9699 30.3727C86.8125 30.4934 86.7036 30.6279 86.6432 30.7761L85.872 30.6005C85.9635 30.3443 86.0971 30.1375 86.2727 29.9802C86.4502 29.821 86.6542 29.7057 86.8848 29.6343C87.1153 29.5611 87.3578 29.5246 87.6121 29.5246C87.7805 29.5246 87.9589 29.5447 88.1473 29.5849C88.3376 29.6234 88.5151 29.6947 88.6798 29.799C88.8463 29.9033 88.9826 30.0524 89.0888 30.2464C89.1949 30.4385 89.248 30.6883 89.248 30.9957V33.7953H88.4465V33.2189H88.4136C88.3605 33.325 88.2809 33.4293 88.1748 33.5318C88.0687 33.6343 87.9323 33.7194 87.7658 33.7871C87.5993 33.8548 87.3999 33.8886 87.1675 33.8886ZM87.3459 33.2299C87.5728 33.2299 87.7667 33.1851 87.9278 33.0954C88.0906 33.0057 88.2141 32.8886 88.2983 32.7441C88.3843 32.5977 88.4273 32.4412 88.4273 32.2747V31.7313C88.398 31.7606 88.3413 31.788 88.2571 31.8136C88.1748 31.8374 88.0805 31.8585 87.9744 31.8768C87.8683 31.8932 87.7649 31.9088 87.6643 31.9234C87.5636 31.9362 87.4795 31.9472 87.4118 31.9563C87.2526 31.9765 87.1071 32.0103 86.9754 32.0579C86.8454 32.1055 86.7411 32.1741 86.6625 32.2638C86.5856 32.3516 86.5472 32.4687 86.5472 32.6151C86.5472 32.8182 86.6222 32.9719 86.7722 33.0762C86.9223 33.1786 87.1135 33.2299 87.3459 33.2299ZM87.3157 29.0168L87.958 27.7515H88.8225L87.9717 29.0168H87.3157ZM90.341 33.7953V29.5794H91.1342V30.2491H91.1782C91.255 30.0223 91.3904 29.8438 91.5844 29.7139C91.7802 29.5822 92.0016 29.5163 92.2486 29.5163C92.2998 29.5163 92.3602 29.5181 92.4297 29.5218C92.5011 29.5255 92.5569 29.53 92.5972 29.5355V30.3205C92.5642 30.3114 92.5057 30.3013 92.4215 30.2903C92.3373 30.2775 92.2532 30.2711 92.169 30.2711C91.975 30.2711 91.8021 30.3123 91.6502 30.3946C91.5002 30.4751 91.3813 30.5877 91.2934 30.7322C91.2056 30.8749 91.1617 31.0378 91.1617 31.2208V33.7953H90.341ZM93.3074 33.7953V29.5794H94.128V33.7953H93.3074ZM93.7218 28.929C93.5791 28.929 93.4565 28.8814 93.354 28.7862C93.2534 28.6893 93.2031 28.574 93.2031 28.4404C93.2031 28.305 93.2534 28.1897 93.354 28.0946C93.4565 27.9976 93.5791 27.9491 93.7218 27.9491C93.8645 27.9491 93.9862 27.9976 94.0868 28.0946C94.1893 28.1897 94.2405 28.305 94.2405 28.4404C94.2405 28.574 94.1893 28.6893 94.0868 28.7862C93.9862 28.8814 93.8645 28.929 93.7218 28.929ZM96.4589 33.8886C96.1918 33.8886 95.9503 33.8392 95.7343 33.7404C95.5184 33.6398 95.3473 33.4943 95.2211 33.304C95.0967 33.1137 95.0344 32.8804 95.0344 32.6041C95.0344 32.3662 95.0802 32.1704 95.1717 32.0167C95.2632 31.863 95.3867 31.7413 95.5422 31.6517C95.6977 31.562 95.8716 31.4943 96.0637 31.4486C96.2558 31.4028 96.4516 31.3681 96.6511 31.3443C96.9036 31.315 97.1085 31.2912 97.2659 31.2729C97.4232 31.2528 97.5376 31.2208 97.609 31.1769C97.6803 31.1329 97.716 31.0616 97.716 30.9628V30.9436C97.716 30.7039 97.6483 30.5181 97.5129 30.3864C97.3793 30.2546 97.1799 30.1888 96.9146 30.1888C96.6383 30.1888 96.4205 30.2501 96.2613 30.3727C96.104 30.4934 95.9951 30.6279 95.9347 30.7761L95.1634 30.6005C95.2549 30.3443 95.3885 30.1375 95.5642 29.9802C95.7417 29.821 95.9457 29.7057 96.1762 29.6343C96.4068 29.5611 96.6492 29.5246 96.9036 29.5246C97.0719 29.5246 97.2503 29.5447 97.4388 29.5849C97.6291 29.6234 97.8066 29.6947 97.9713 29.799C98.1378 29.9033 98.2741 30.0524 98.3802 30.2464C98.4864 30.4385 98.5394 30.6883 98.5394 30.9957V33.7953H97.738V33.2189H97.705C97.652 33.325 97.5724 33.4293 97.4662 33.5318C97.3601 33.6343 97.2238 33.7194 97.0573 33.7871C96.8908 33.8548 96.6913 33.8886 96.4589 33.8886ZM96.6373 33.2299C96.8642 33.2299 97.0582 33.1851 97.2192 33.0954C97.3821 33.0057 97.5056 32.8886 97.5898 32.7441C97.6758 32.5977 97.7188 32.4412 97.7188 32.2747V31.7313C97.6895 31.7606 97.6328 31.788 97.5486 31.8136C97.4662 31.8374 97.372 31.8585 97.2659 31.8768C97.1598 31.8932 97.0564 31.9088 96.9557 31.9234C96.8551 31.9362 96.7709 31.9472 96.7032 31.9563C96.544 31.9765 96.3986 32.0103 96.2668 32.0579C96.1369 32.1055 96.0326 32.1741 95.9539 32.2638C95.8771 32.3516 95.8386 32.4687 95.8386 32.6151C95.8386 32.8182 95.9137 32.9719 96.0637 33.0762C96.2137 33.1786 96.405 33.2299 96.6373 33.2299ZM102.792 30.6087L102.048 30.7404C102.017 30.6453 101.967 30.5547 101.9 30.4687C101.834 30.3827 101.744 30.3123 101.631 30.2574C101.517 30.2025 101.375 30.175 101.205 30.175C100.973 30.175 100.779 30.2272 100.623 30.3315C100.468 30.434 100.39 30.5666 100.39 30.7295C100.39 30.8704 100.442 30.9838 100.546 31.0698C100.651 31.1558 100.819 31.2263 101.051 31.2812L101.721 31.4349C102.109 31.5245 102.398 31.6627 102.589 31.8493C102.779 32.0359 102.874 32.2784 102.874 32.5766C102.874 32.8292 102.801 33.0542 102.654 33.2518C102.51 33.4476 102.308 33.6013 102.048 33.7129C101.79 33.8246 101.491 33.8804 101.15 33.8804C100.678 33.8804 100.293 33.7797 99.9948 33.5785C99.6965 33.3754 99.5135 33.0872 99.4458 32.7139L100.239 32.5931C100.288 32.7999 100.39 32.9563 100.544 33.0625C100.697 33.1668 100.898 33.2189 101.145 33.2189C101.414 33.2189 101.629 33.1631 101.79 33.0515C101.951 32.938 102.031 32.7999 102.031 32.637C102.031 32.5053 101.982 32.3946 101.883 32.3049C101.786 32.2153 101.637 32.1476 101.436 32.1018L100.722 31.9454C100.329 31.8557 100.038 31.713 99.8493 31.5172C99.6627 31.3214 99.5694 31.0735 99.5694 30.7734C99.5694 30.5245 99.6389 30.3068 99.778 30.1201C99.917 29.9335 100.109 29.788 100.354 29.6837C100.6 29.5776 100.88 29.5246 101.197 29.5246C101.653 29.5246 102.011 29.6234 102.273 29.821C102.535 30.0168 102.707 30.2793 102.792 30.6087Z" fill="#AAAAAA"/>
<path d="M29.3374 59.6299V65.251H28.8296V60.1679H28.797L27.4937 61.0434V60.511L28.8079 59.6299H29.3374Z" fill="#AAAAAA"/>
<path d="M31.4853 63.6591L31.4798 63.0196H31.5884L33.5435 61.0352H34.1545L32.2238 62.9894L32.1804 62.9976L31.4853 63.6591ZM31.0454 65.251V59.6299H31.5287V65.251H31.0454ZM33.644 65.251L31.9496 63.0855L32.2972 62.7479L34.2631 65.251H33.644Z" fill="#AAAAAA"/>
<line x1="45.6409" y1="62.2867" x2="329.039" y2="62.2867" stroke="#E5E5E5" stroke-width="0.483065"/>
<path d="M29.248 82.3121C28.9384 82.3121 28.6615 82.2489 28.4171 82.1227C28.1745 81.9946 27.9808 81.8189 27.836 81.5957C27.693 81.3725 27.617 81.1172 27.6079 80.8299H28.0994C28.1157 81.1282 28.2315 81.3734 28.447 81.5655C28.6624 81.7558 28.9294 81.851 29.248 81.851C29.496 81.851 29.7169 81.7915 29.9106 81.6725C30.1042 81.5518 30.2554 81.3871 30.364 81.1785C30.4744 80.9681 30.5297 80.7311 30.5297 80.4676C30.5278 80.1932 30.469 79.9516 30.3532 79.743C30.2373 79.5326 30.0798 79.3679 29.8807 79.249C29.6834 79.13 29.4616 79.0706 29.2154 79.0706C29.029 79.0688 28.8461 79.0999 28.6669 79.1639C28.4877 79.2279 28.3383 79.3103 28.2189 79.4109L27.7111 79.345L28.0451 76.6141H30.793V77.0752H28.4714L28.2487 78.9553H28.2759C28.399 78.851 28.5483 78.7659 28.7239 78.7C28.9013 78.6342 29.0887 78.6012 29.286 78.6012C29.6137 78.6012 29.9078 78.6808 30.1685 78.84C30.431 78.9992 30.6383 79.2188 30.7903 79.4988C30.9442 79.7769 31.0211 80.0971 31.0211 80.4594C31.0211 80.8144 30.9442 81.1318 30.7903 81.4118C30.6383 81.6899 30.4283 81.9095 30.1604 82.0705C29.8943 82.2315 29.5901 82.3121 29.248 82.3121Z" fill="#AAAAAA"/>
<path d="M33.9035 82.3121C33.5125 82.3121 33.1785 82.1986 32.9015 81.9717C32.6264 81.743 32.4146 81.4127 32.2661 80.9809C32.1195 80.5491 32.0462 80.0303 32.0462 79.4246C32.0462 78.8208 32.1195 78.3039 32.2661 77.8739C32.4146 77.4421 32.6273 77.1118 32.9043 76.8831C33.183 76.6525 33.5161 76.5372 33.9035 76.5372C34.2909 76.5372 34.6231 76.6525 34.9001 76.8831C35.1788 77.1118 35.3915 77.4421 35.5382 77.8739C35.6866 78.3039 35.7608 78.8208 35.7608 79.4246C35.7608 80.0303 35.6866 80.5491 35.5382 80.9809C35.3915 81.4127 35.1797 81.743 34.9028 81.9717C34.6276 82.1986 34.2945 82.3121 33.9035 82.3121ZM33.9035 81.851C34.3325 81.851 34.6674 81.6396 34.9082 81.2169C35.149 80.7924 35.2694 80.195 35.2694 79.4246C35.2694 78.9123 35.2141 78.475 35.1037 78.1127C34.9951 77.7486 34.8385 77.4704 34.634 77.2783C34.4312 77.0862 34.1877 76.9901 33.9035 76.9901C33.4781 76.9901 33.1441 77.2042 32.9015 77.6324C32.659 78.0587 32.5377 78.6561 32.5377 79.4246C32.5377 79.937 32.592 80.3743 32.7006 80.7366C32.811 81.0989 32.9676 81.3752 33.1704 81.5655C33.3749 81.7558 33.6193 81.851 33.9035 81.851Z" fill="#AAAAAA"/>
<path d="M38.593 82.3121C38.202 82.3121 37.868 82.1986 37.591 81.9717C37.3158 81.743 37.104 81.4127 36.9556 80.9809C36.809 80.5491 36.7357 80.0303 36.7357 79.4246C36.7357 78.8208 36.809 78.3039 36.9556 77.8739C37.104 77.4421 37.3167 77.1118 37.5937 76.8831C37.8725 76.6525 38.2056 76.5372 38.593 76.5372C38.9804 76.5372 39.3125 76.6525 39.5895 76.8831C39.8683 77.1118 40.081 77.4421 40.2276 77.8739C40.3761 78.3039 40.4503 78.8208 40.4503 79.4246C40.4503 80.0303 40.3761 80.5491 40.2276 80.9809C40.081 81.4127 39.8692 81.743 39.5922 81.9717C39.3171 82.1986 38.984 82.3121 38.593 82.3121ZM38.593 81.851C39.022 81.851 39.3569 81.6396 39.5977 81.2169C39.8384 80.7924 39.9588 80.195 39.9588 79.4246C39.9588 78.9123 39.9036 78.475 39.7932 78.1127C39.6846 77.7486 39.528 77.4704 39.3234 77.2783C39.1207 77.0862 38.8772 76.9901 38.593 76.9901C38.1676 76.9901 37.8336 77.2042 37.591 77.6324C37.3484 78.0587 37.2271 78.6561 37.2271 79.4246C37.2271 79.937 37.2814 80.3743 37.3901 80.7366C37.5005 81.0989 37.6571 81.3752 37.8598 81.5655C38.0644 81.7558 38.3088 81.851 38.593 81.851Z" fill="#AAAAAA"/>
<line x1="45.6409" y1="79.1941" x2="329.039" y2="79.1941" stroke="#E5E5E5" stroke-width="0.483065"/>
<path d="M29.3374 93.5214V99.1425H28.8296V94.0593H28.797L27.4937 94.9349V94.4024L28.8079 93.5214H29.3374Z" fill="#AAAAAA"/>
<path d="M32.7533 99.2193C32.3623 99.2193 32.0283 99.1059 31.7514 98.879C31.4762 98.6503 31.2644 98.32 31.116 97.8882C30.9693 97.4563 30.896 96.9376 30.896 96.3319C30.896 95.7281 30.9693 95.2112 31.116 94.7812C31.2644 94.3494 31.4771 94.0191 31.7541 93.7903C32.0329 93.5598 32.3659 93.4445 32.7533 93.4445C33.1407 93.4445 33.4729 93.5598 33.7499 93.7903C34.0287 94.0191 34.2414 94.3494 34.388 94.7812C34.5364 95.2112 34.6107 95.7281 34.6107 96.3319C34.6107 96.9376 34.5364 97.4563 34.388 97.8882C34.2414 98.32 34.0296 98.6503 33.7526 98.879C33.4774 99.1059 33.1444 99.2193 32.7533 99.2193ZM32.7533 98.7582C33.1824 98.7582 33.5173 98.5469 33.758 98.1242C33.9988 97.6997 34.1192 97.1023 34.1192 96.3319C34.1192 95.8196 34.064 95.3823 33.9535 95.02C33.8449 94.6558 33.6883 94.3777 33.4838 94.1856C33.281 93.9935 33.0375 93.8974 32.7533 93.8974C32.3279 93.8974 31.9939 94.1115 31.7514 94.5397C31.5088 94.966 31.3875 95.5634 31.3875 96.3319C31.3875 96.8443 31.4418 97.2816 31.5504 97.6439C31.6609 98.0062 31.8174 98.2825 32.0202 98.4728C32.2247 98.6631 32.4691 98.7582 32.7533 98.7582Z" fill="#AAAAAA"/>
<path d="M37.4428 99.2193C37.0518 99.2193 36.7178 99.1059 36.4408 98.879C36.1657 98.6503 35.9539 98.32 35.8054 97.8882C35.6588 97.4563 35.5855 96.9376 35.5855 96.3319C35.5855 95.7281 35.6588 95.2112 35.8054 94.7812C35.9539 94.3494 36.1666 94.0191 36.4435 93.7903C36.7223 93.5598 37.0554 93.4445 37.4428 93.4445C37.8302 93.4445 38.1624 93.5598 38.4393 93.7903C38.7181 94.0191 38.9308 94.3494 39.0775 94.7812C39.2259 95.2112 39.3001 95.7281 39.3001 96.3319C39.3001 96.9376 39.2259 97.4563 39.0775 97.8882C38.9308 98.32 38.719 98.6503 38.4421 98.879C38.1669 99.1059 37.8338 99.2193 37.4428 99.2193ZM37.4428 98.7582C37.8718 98.7582 38.2067 98.5469 38.4475 98.1242C38.6883 97.6997 38.8086 97.1023 38.8086 96.3319C38.8086 95.8196 38.7534 95.3823 38.643 95.02C38.5344 94.6558 38.3778 94.3777 38.1732 94.1856C37.9705 93.9935 37.727 93.8974 37.4428 93.8974C37.0174 93.8974 36.6834 94.1115 36.4408 94.5397C36.1982 94.966 36.077 95.5634 36.077 96.3319C36.077 96.8443 36.1313 97.2816 36.2399 97.6439C36.3503 98.0062 36.5069 98.2825 36.7096 98.4728C36.9142 98.6631 37.1586 98.7582 37.4428 98.7582Z" fill="#AAAAAA"/>
<line x1="45.6409" y1="96.1014" x2="329.039" y2="96.1014" stroke="#E5E5E5" stroke-width="0.483065"/>
<path d="M29.248 116.127C28.9384 116.127 28.6615 116.064 28.4171 115.937C28.1745 115.809 27.9808 115.634 27.836 115.41C27.693 115.187 27.617 114.932 27.6079 114.645H28.0994C28.1157 114.943 28.2315 115.188 28.447 115.38C28.6624 115.57 28.9294 115.666 29.248 115.666C29.496 115.666 29.7169 115.606 29.9106 115.487C30.1042 115.366 30.2554 115.202 30.364 114.993C30.4744 114.783 30.5297 114.546 30.5297 114.282C30.5278 114.008 30.469 113.766 30.3532 113.558C30.2373 113.347 30.0798 113.182 29.8807 113.064C29.6834 112.945 29.4616 112.885 29.2154 112.885C29.029 112.883 28.8461 112.914 28.6669 112.978C28.4877 113.043 28.3383 113.125 28.2189 113.225L27.7111 113.16L28.0451 110.429H30.793V110.89H28.4714L28.2487 112.77H28.2759C28.399 112.666 28.5483 112.58 28.7239 112.515C28.9013 112.449 29.0887 112.416 29.286 112.416C29.6137 112.416 29.9078 112.495 30.1685 112.655C30.431 112.814 30.6383 113.033 30.7903 113.313C30.9442 113.591 31.0211 113.912 31.0211 114.274C31.0211 114.629 30.9442 114.946 30.7903 115.226C30.6383 115.505 30.4283 115.724 30.1604 115.885C29.8943 116.046 29.5901 116.127 29.248 116.127Z" fill="#AAAAAA"/>
<path d="M33.9035 116.127C33.5125 116.127 33.1785 116.013 32.9015 115.786C32.6264 115.558 32.4146 115.227 32.2661 114.795C32.1195 114.364 32.0462 113.845 32.0462 113.239C32.0462 112.635 32.1195 112.118 32.2661 111.688C32.4146 111.257 32.6273 110.926 32.9043 110.698C33.183 110.467 33.5161 110.352 33.9035 110.352C34.2909 110.352 34.6231 110.467 34.9001 110.698C35.1788 110.926 35.3915 111.257 35.5382 111.688C35.6866 112.118 35.7608 112.635 35.7608 113.239C35.7608 113.845 35.6866 114.364 35.5382 114.795C35.3915 115.227 35.1797 115.558 34.9028 115.786C34.6276 116.013 34.2945 116.127 33.9035 116.127ZM33.9035 115.666C34.3325 115.666 34.6674 115.454 34.9082 115.032C35.149 114.607 35.2694 114.01 35.2694 113.239C35.2694 112.727 35.2141 112.29 35.1037 111.927C34.9951 111.563 34.8385 111.285 34.634 111.093C34.4312 110.901 34.1877 110.805 33.9035 110.805C33.4781 110.805 33.1441 111.019 32.9015 111.447C32.659 111.873 32.5377 112.471 32.5377 113.239C32.5377 113.752 32.592 114.189 32.7006 114.551C32.811 114.913 32.9676 115.19 33.1704 115.38C33.3749 115.57 33.6193 115.666 33.9035 115.666Z" fill="#AAAAAA"/>
<line x1="45.6409" y1="113.009" x2="329.039" y2="113.009" stroke="#E5E5E5" stroke-width="0.483065"/>
<path d="M85.0681 96.3429L68.5803 113.492H317.809L291.524 68.0836L263.566 96.3429L249.707 79.4357L235.609 92.4784L215.537 72.6727C207.571 81.7705 191.402 99.9659 190.447 99.9659C189.491 99.9659 176.667 81.7705 170.374 72.6727L149.347 99.9659L137.399 96.3429L125.69 103.106L106.813 85.7155L101.078 103.106L85.0681 96.3429Z" fill="url(#paint0_linear_66_887)" stroke="url(#paint1_linear_66_887)" stroke-width="0.483065"/>
<path d="M70.6821 120.831H71.3161V123.82C71.3161 124.09 71.2626 124.322 71.1555 124.514C71.0499 124.706 70.901 124.853 70.7088 124.954C70.5167 125.055 70.2916 125.105 70.0336 125.105C69.7962 125.105 69.5828 125.061 69.3934 124.975C69.2054 124.888 69.0565 124.763 68.9467 124.598C68.8383 124.432 68.7841 124.23 68.7841 123.993H69.4161C69.4161 124.11 69.4428 124.211 69.4964 124.296C69.5513 124.381 69.626 124.447 69.7207 124.495C69.8168 124.542 69.9266 124.565 70.0501 124.565C70.1846 124.565 70.2985 124.537 70.3918 124.481C70.4865 124.423 70.5586 124.339 70.608 124.228C70.6574 124.117 70.6821 123.981 70.6821 123.82V120.831ZM73.1127 125.117C72.9123 125.117 72.7312 125.08 72.5692 125.006C72.4073 124.93 72.279 124.821 72.1843 124.679C72.091 124.536 72.0443 124.361 72.0443 124.154C72.0443 123.975 72.0786 123.828 72.1472 123.713C72.2158 123.598 72.3085 123.507 72.4251 123.439C72.5418 123.372 72.6721 123.321 72.8162 123.287C72.9603 123.253 73.1072 123.227 73.2568 123.209C73.4461 123.187 73.5998 123.169 73.7179 123.155C73.8359 123.14 73.9217 123.116 73.9752 123.083C74.0287 123.05 74.0555 122.997 74.0555 122.923V122.908C74.0555 122.728 74.0047 122.589 73.9031 122.49C73.803 122.392 73.6534 122.342 73.4544 122.342C73.2472 122.342 73.0838 122.388 72.9644 122.48C72.8464 122.571 72.7648 122.671 72.7195 122.783L72.141 122.651C72.2097 122.459 72.3098 122.304 72.4416 122.186C72.5747 122.066 72.7277 121.98 72.9006 121.926C73.0736 121.871 73.2554 121.844 73.4461 121.844C73.5724 121.844 73.7062 121.859 73.8476 121.889C73.9903 121.918 74.1234 121.972 74.2469 122.05C74.3718 122.128 74.474 122.24 74.5536 122.385C74.6332 122.529 74.673 122.717 74.673 122.947V125.047H74.0719V124.615H74.0472C74.0074 124.694 73.9477 124.773 73.8681 124.849C73.7885 124.926 73.6863 124.99 73.5614 125.041C73.4365 125.092 73.287 125.117 73.1127 125.117ZM73.2465 124.623C73.4166 124.623 73.5621 124.589 73.6829 124.522C73.805 124.455 73.8976 124.367 73.9608 124.259C74.0253 124.149 74.0575 124.031 74.0575 123.907V123.499C74.0356 123.521 73.993 123.542 73.9299 123.561C73.8681 123.579 73.7975 123.594 73.7179 123.608C73.6383 123.62 73.5607 123.632 73.4853 123.643C73.4098 123.653 73.3466 123.661 73.2959 123.668C73.1765 123.683 73.0674 123.708 72.9686 123.744C72.8711 123.78 72.7929 123.831 72.7339 123.898C72.6763 123.964 72.6474 124.052 72.6474 124.162C72.6474 124.314 72.7037 124.429 72.8162 124.508C72.9288 124.585 73.0722 124.623 73.2465 124.623ZM76.1083 123.17V125.047H75.4928V121.885H76.0836V122.4H76.1227C76.1955 122.232 76.3094 122.098 76.4644 121.996C76.6209 121.895 76.8178 121.844 77.0552 121.844C77.2707 121.844 77.4594 121.889 77.6213 121.98C77.7833 122.069 77.9088 122.202 77.998 122.379C78.0872 122.556 78.1318 122.775 78.1318 123.036V125.047H77.5163V123.11C77.5163 122.881 77.4566 122.702 77.3373 122.573C77.2179 122.442 77.0539 122.377 76.8453 122.377C76.7025 122.377 76.5756 122.408 76.4644 122.47C76.3547 122.531 76.2675 122.622 76.203 122.741C76.1399 122.859 76.1083 123.002 76.1083 123.17Z" fill="#C0DECD"/>
<path d="M91.0271 125.047V120.831H93.6414V121.379H91.6632V122.663H93.4541V123.209H91.6632V125.047H91.0271ZM95.5049 125.111C95.1934 125.111 94.9251 125.044 94.7 124.911C94.4763 124.777 94.3034 124.588 94.1813 124.345C94.0605 124.101 94.0001 123.815 94.0001 123.487C94.0001 123.163 94.0605 122.877 94.1813 122.63C94.3034 122.383 94.4736 122.19 94.6918 122.052C94.9114 121.913 95.168 121.844 95.4617 121.844C95.6401 121.844 95.813 121.873 95.9804 121.932C96.1479 121.991 96.2981 122.084 96.4313 122.21C96.5644 122.337 96.6694 122.501 96.7462 122.702C96.8231 122.903 96.8615 123.146 96.8615 123.433V123.651H94.348V123.19H96.2583C96.2583 123.028 96.2254 122.885 96.1595 122.76C96.0937 122.634 96.001 122.534 95.8816 122.461C95.7636 122.389 95.625 122.352 95.4658 122.352C95.2929 122.352 95.1419 122.395 95.0129 122.48C94.8853 122.564 94.7865 122.674 94.7165 122.809C94.6479 122.944 94.6136 123.09 94.6136 123.248V123.608C94.6136 123.819 94.6506 123.999 94.7247 124.147C94.8002 124.296 94.9052 124.409 95.0397 124.487C95.1742 124.564 95.3313 124.602 95.5111 124.602C95.6277 124.602 95.7341 124.586 95.8302 124.553C95.9262 124.519 96.0093 124.468 96.0792 124.401C96.1492 124.333 96.2028 124.25 96.2398 124.152L96.8224 124.257C96.7757 124.428 96.692 124.578 96.5712 124.707C96.4518 124.835 96.3016 124.934 96.1204 125.006C95.9406 125.076 95.7355 125.111 95.5049 125.111ZM100.159 121.885L99.0121 125.047H98.3534L97.2047 121.885H97.8655L98.6663 124.318H98.6992L99.4979 121.885H100.159Z" fill="#C0DECD"/>
<path d="M112.055 120.831H112.827L114.169 124.108H114.219L115.561 120.831H116.333V125.047H115.728V121.996H115.688L114.445 125.041H113.943L112.7 121.994H112.66V125.047H112.055V120.831ZM118.128 125.117C117.928 125.117 117.747 125.08 117.585 125.006C117.423 124.93 117.295 124.821 117.2 124.679C117.107 124.536 117.06 124.361 117.06 124.154C117.06 123.975 117.094 123.828 117.163 123.713C117.232 123.598 117.324 123.507 117.441 123.439C117.557 123.372 117.688 123.321 117.832 123.287C117.976 123.253 118.123 123.227 118.272 123.209C118.462 123.187 118.616 123.169 118.734 123.155C118.852 123.14 118.937 123.116 118.991 123.083C119.044 123.05 119.071 122.997 119.071 122.923V122.908C119.071 122.728 119.02 122.589 118.919 122.49C118.819 122.392 118.669 122.342 118.47 122.342C118.263 122.342 118.1 122.388 117.98 122.48C117.862 122.571 117.78 122.671 117.735 122.783L117.157 122.651C117.225 122.459 117.326 122.304 117.457 122.186C117.59 122.066 117.743 121.98 117.916 121.926C118.089 121.871 118.271 121.844 118.462 121.844C118.588 121.844 118.722 121.859 118.863 121.889C119.006 121.918 119.139 121.972 119.263 122.05C119.387 122.128 119.49 122.24 119.569 122.385C119.649 122.529 119.689 122.717 119.689 122.947V125.047H119.088V124.615H119.063C119.023 124.694 118.963 124.773 118.884 124.849C118.804 124.926 118.702 124.99 118.577 125.041C118.452 125.092 118.303 125.117 118.128 125.117ZM118.262 124.623C118.432 124.623 118.578 124.589 118.699 124.522C118.821 124.455 118.913 124.367 118.976 124.259C119.041 124.149 119.073 124.031 119.073 123.907V123.499C119.051 123.521 119.009 123.542 118.946 123.561C118.884 123.579 118.813 123.594 118.734 123.608C118.654 123.62 118.576 123.632 118.501 123.643C118.425 123.653 118.362 123.661 118.312 123.668C118.192 123.683 118.083 123.708 117.984 123.744C117.887 123.78 117.809 123.831 117.75 123.898C117.692 123.964 117.663 124.052 117.663 124.162C117.663 124.314 117.719 124.429 117.832 124.508C117.944 124.585 118.088 124.623 118.262 124.623ZM120.509 125.047V121.885H121.103V122.387H121.136C121.194 122.217 121.296 122.083 121.441 121.986C121.588 121.887 121.754 121.838 121.939 121.838C121.978 121.838 122.023 121.839 122.075 121.842C122.129 121.845 122.17 121.848 122.201 121.852V122.441C122.176 122.434 122.132 122.427 122.069 122.418C122.006 122.409 121.943 122.404 121.879 122.404C121.734 122.404 121.604 122.435 121.49 122.496C121.378 122.557 121.289 122.641 121.223 122.75C121.157 122.857 121.124 122.979 121.124 123.116V125.047H120.509Z" fill="#C0DECD"/>
<path d="M134.873 125.047H134.198L135.715 120.831H136.45L137.967 125.047H137.292L136.1 121.597H136.067L134.873 125.047ZM134.986 123.396H137.176V123.931H134.986V123.396ZM138.576 125.047V120.831H139.191V122.398H139.228C139.264 122.332 139.315 122.256 139.382 122.169C139.45 122.083 139.543 122.007 139.662 121.943C139.782 121.877 139.94 121.844 140.136 121.844C140.391 121.844 140.619 121.908 140.819 122.037C141.02 122.166 141.177 122.352 141.291 122.595C141.406 122.838 141.464 123.131 141.464 123.472C141.464 123.814 141.407 124.107 141.293 124.351C141.179 124.594 141.022 124.781 140.823 124.913C140.624 125.044 140.397 125.109 140.142 125.109C139.95 125.109 139.793 125.077 139.671 125.012C139.55 124.948 139.455 124.872 139.387 124.786C139.318 124.699 139.265 124.622 139.228 124.555H139.177V125.047H138.576ZM139.179 123.466C139.179 123.688 139.211 123.883 139.275 124.051C139.34 124.218 139.433 124.349 139.555 124.444C139.678 124.537 139.827 124.584 140.004 124.584C140.188 124.584 140.342 124.535 140.465 124.438C140.589 124.339 140.682 124.205 140.745 124.036C140.81 123.867 140.842 123.677 140.842 123.466C140.842 123.257 140.81 123.07 140.747 122.904C140.685 122.738 140.592 122.607 140.467 122.511C140.344 122.415 140.189 122.367 140.004 122.367C139.826 122.367 139.675 122.413 139.551 122.505C139.429 122.597 139.336 122.725 139.273 122.89C139.21 123.054 139.179 123.246 139.179 123.466ZM142.155 125.047V121.885H142.75V122.387H142.783C142.84 122.217 142.942 122.083 143.087 121.986C143.234 121.887 143.4 121.838 143.585 121.838C143.624 121.838 143.669 121.839 143.721 121.842C143.775 121.845 143.817 121.848 143.847 121.852V122.441C143.822 122.434 143.778 122.427 143.715 122.418C143.652 122.409 143.589 122.404 143.526 122.404C143.38 122.404 143.251 122.435 143.137 122.496C143.024 122.557 142.935 122.641 142.869 122.75C142.803 122.857 142.77 122.979 142.77 123.116V125.047H142.155Z" fill="#C0DECD"/>
<path d="M156.022 120.831H156.794L158.136 124.108H158.186L159.528 120.831H160.3V125.047H159.695V121.996H159.656L158.412 125.041H157.91L156.667 121.994H156.627V125.047H156.022V120.831ZM162.095 125.117C161.895 125.117 161.714 125.08 161.552 125.006C161.39 124.93 161.262 124.821 161.167 124.679C161.074 124.536 161.027 124.361 161.027 124.154C161.027 123.975 161.061 123.828 161.13 123.713C161.199 123.598 161.291 123.507 161.408 123.439C161.524 123.372 161.655 123.321 161.799 123.287C161.943 123.253 162.09 123.227 162.239 123.209C162.429 123.187 162.583 123.169 162.701 123.155C162.819 123.14 162.904 123.116 162.958 123.083C163.011 123.05 163.038 122.997 163.038 122.923V122.908C163.038 122.728 162.987 122.589 162.886 122.49C162.786 122.392 162.636 122.342 162.437 122.342C162.23 122.342 162.067 122.388 161.947 122.48C161.829 122.571 161.747 122.671 161.702 122.783L161.124 122.651C161.192 122.459 161.293 122.304 161.424 122.186C161.557 122.066 161.71 121.98 161.883 121.926C162.056 121.871 162.238 121.844 162.429 121.844C162.555 121.844 162.689 121.859 162.83 121.889C162.973 121.918 163.106 121.972 163.23 122.05C163.355 122.128 163.457 122.24 163.536 122.385C163.616 122.529 163.656 122.717 163.656 122.947V125.047H163.055V124.615H163.03C162.99 124.694 162.93 124.773 162.851 124.849C162.771 124.926 162.669 124.99 162.544 125.041C162.419 125.092 162.27 125.117 162.095 125.117ZM162.229 124.623C162.399 124.623 162.545 124.589 162.666 124.522C162.788 124.455 162.88 124.367 162.943 124.259C163.008 124.149 163.04 124.031 163.04 123.907V123.499C163.018 123.521 162.976 123.542 162.913 123.561C162.851 123.579 162.78 123.594 162.701 123.608C162.621 123.62 162.543 123.632 162.468 123.643C162.393 123.653 162.329 123.661 162.279 123.668C162.159 123.683 162.05 123.708 161.951 123.744C161.854 123.78 161.776 123.831 161.717 123.898C161.659 123.964 161.63 124.052 161.63 124.162C161.63 124.314 161.686 124.429 161.799 124.508C161.911 124.585 162.055 124.623 162.229 124.623ZM164.476 125.047V121.885H165.091V125.047H164.476ZM164.786 121.397C164.679 121.397 164.587 121.362 164.511 121.29C164.435 121.217 164.397 121.131 164.397 121.031C164.397 120.929 164.435 120.843 164.511 120.771C164.587 120.699 164.679 120.662 164.786 120.662C164.893 120.662 164.985 120.699 165.06 120.771C165.137 120.843 165.175 120.929 165.175 121.031C165.175 121.131 165.137 121.217 165.06 121.29C164.985 121.362 164.893 121.397 164.786 121.397Z" fill="#C0DECD"/>
<path d="M179.167 120.831H179.801V123.82C179.801 124.09 179.748 124.322 179.641 124.514C179.535 124.706 179.386 124.853 179.194 124.954C179.002 125.055 178.777 125.105 178.519 125.105C178.281 125.105 178.068 125.061 177.879 124.975C177.691 124.888 177.542 124.763 177.432 124.598C177.323 124.432 177.269 124.23 177.269 123.993H177.901C177.901 124.11 177.928 124.211 177.981 124.296C178.036 124.381 178.111 124.447 178.206 124.495C178.302 124.542 178.412 124.565 178.535 124.565C178.67 124.565 178.784 124.537 178.877 124.481C178.972 124.423 179.044 124.339 179.093 124.228C179.142 124.117 179.167 123.981 179.167 123.82V120.831ZM182.681 123.736V121.885H183.298V125.047H182.693V124.499H182.66C182.587 124.668 182.471 124.809 182.31 124.921C182.151 125.033 181.953 125.088 181.715 125.088C181.512 125.088 181.332 125.044 181.176 124.954C181.021 124.864 180.899 124.73 180.809 124.553C180.722 124.376 180.678 124.157 180.678 123.896V121.885H181.293V123.822C181.293 124.038 181.353 124.209 181.472 124.337C181.592 124.464 181.747 124.528 181.937 124.528C182.053 124.528 182.167 124.499 182.281 124.442C182.396 124.384 182.492 124.297 182.567 124.18C182.644 124.064 182.682 123.915 182.681 123.736ZM184.741 123.17V125.047H184.125V121.885H184.716V122.4H184.755C184.828 122.232 184.942 122.098 185.097 121.996C185.253 121.895 185.45 121.844 185.688 121.844C185.903 121.844 186.092 121.889 186.254 121.98C186.416 122.069 186.541 122.202 186.63 122.379C186.72 122.556 186.764 122.775 186.764 123.036V125.047H186.149V123.11C186.149 122.881 186.089 122.702 185.97 122.573C185.85 122.442 185.686 122.377 185.478 122.377C185.335 122.377 185.208 122.408 185.097 122.47C184.987 122.531 184.9 122.622 184.835 122.741C184.772 122.859 184.741 123.002 184.741 123.17Z" fill="#C0DECD"/>
<path d="M201.151 120.831H201.785V123.82C201.785 124.09 201.731 124.322 201.624 124.514C201.518 124.706 201.369 124.853 201.177 124.954C200.985 125.055 200.76 125.105 200.502 125.105C200.265 125.105 200.051 125.061 199.862 124.975C199.674 124.888 199.525 124.763 199.415 124.598C199.307 124.432 199.253 124.23 199.253 123.993H199.885C199.885 124.11 199.911 124.211 199.965 124.296C200.02 124.381 200.095 124.447 200.189 124.495C200.285 124.542 200.395 124.565 200.519 124.565C200.653 124.565 200.767 124.537 200.86 124.481C200.955 124.423 201.027 124.339 201.076 124.228C201.126 124.117 201.151 123.981 201.151 123.82V120.831ZM204.664 123.736V121.885H205.282V125.047H204.676V124.499H204.643C204.571 124.668 204.454 124.809 204.293 124.921C204.134 125.033 203.936 125.088 203.699 125.088C203.495 125.088 203.316 125.044 203.159 124.954C203.004 124.864 202.882 124.73 202.793 124.553C202.705 124.376 202.661 124.157 202.661 123.896V121.885H203.277V123.822C203.277 124.038 203.336 124.209 203.456 124.337C203.575 124.464 203.73 124.528 203.921 124.528C204.036 124.528 204.151 124.499 204.265 124.442C204.38 124.384 204.475 124.297 204.551 124.18C204.628 124.064 204.665 123.915 204.664 123.736ZM206.724 120.831V125.047H206.109V120.831H206.724Z" fill="#C0DECD"/>
<path d="M219.462 125.047H218.787L220.304 120.831H221.039L222.556 125.047H221.881L220.689 121.597H220.656L219.462 125.047ZM219.576 123.396H221.766V123.931H219.576V123.396ZM224.39 126.299C224.139 126.299 223.923 126.266 223.742 126.2C223.562 126.134 223.415 126.047 223.301 125.938C223.188 125.83 223.103 125.711 223.046 125.582L223.575 125.364C223.612 125.424 223.662 125.488 223.723 125.555C223.787 125.624 223.872 125.682 223.979 125.73C224.087 125.778 224.226 125.802 224.397 125.802C224.63 125.802 224.823 125.746 224.975 125.632C225.127 125.519 225.204 125.339 225.204 125.092V124.471H225.164C225.127 124.538 225.074 124.613 225.004 124.695C224.935 124.777 224.841 124.849 224.72 124.909C224.599 124.969 224.442 125 224.248 125C223.999 125 223.774 124.941 223.573 124.825C223.374 124.707 223.216 124.533 223.1 124.304C222.984 124.073 222.927 123.79 222.927 123.454C222.927 123.117 222.984 122.829 223.098 122.589C223.213 122.349 223.371 122.165 223.571 122.037C223.772 121.908 223.999 121.844 224.253 121.844C224.449 121.844 224.607 121.877 224.728 121.943C224.849 122.007 224.943 122.083 225.01 122.169C225.079 122.256 225.132 122.332 225.169 122.398H225.214V121.885H225.817V125.117C225.817 125.389 225.754 125.612 225.628 125.786C225.501 125.96 225.331 126.089 225.115 126.173C224.901 126.257 224.659 126.299 224.39 126.299ZM224.384 124.489C224.561 124.489 224.711 124.448 224.833 124.366C224.957 124.282 225.05 124.163 225.113 124.007C225.177 123.851 225.21 123.664 225.21 123.445C225.21 123.233 225.178 123.045 225.115 122.883C225.052 122.722 224.959 122.595 224.837 122.505C224.715 122.413 224.564 122.367 224.384 122.367C224.199 122.367 224.045 122.415 223.921 122.511C223.798 122.606 223.704 122.735 223.641 122.898C223.579 123.061 223.549 123.244 223.549 123.445C223.549 123.653 223.58 123.835 223.643 123.991C223.706 124.147 223.8 124.27 223.923 124.357C224.048 124.445 224.202 124.489 224.384 124.489ZM227.974 125.111C227.678 125.111 227.419 125.043 227.198 124.907C226.977 124.771 226.806 124.581 226.684 124.337C226.561 124.093 226.5 123.807 226.5 123.48C226.5 123.152 226.561 122.866 226.684 122.62C226.806 122.374 226.977 122.184 227.198 122.048C227.419 121.912 227.678 121.844 227.974 121.844C228.271 121.844 228.529 121.912 228.75 122.048C228.971 122.184 229.143 122.374 229.265 122.62C229.387 122.866 229.448 123.152 229.448 123.48C229.448 123.807 229.387 124.093 229.265 124.337C229.143 124.581 228.971 124.771 228.75 124.907C228.529 125.043 228.271 125.111 227.974 125.111ZM227.976 124.594C228.169 124.594 228.328 124.543 228.454 124.442C228.58 124.34 228.674 124.205 228.734 124.036C228.796 123.867 228.827 123.682 228.827 123.478C228.827 123.277 228.796 123.091 228.734 122.923C228.674 122.752 228.58 122.616 228.454 122.513C228.328 122.41 228.169 122.359 227.976 122.359C227.783 122.359 227.622 122.41 227.495 122.513C227.368 122.616 227.274 122.752 227.213 122.923C227.152 123.091 227.122 123.277 227.122 123.478C227.122 123.682 227.152 123.867 227.213 124.036C227.274 124.205 227.368 124.34 227.495 124.442C227.622 124.543 227.783 124.594 227.976 124.594Z" fill="#C0DECD"/>
<path d="M244.345 121.939C244.323 121.744 244.232 121.593 244.073 121.486C243.914 121.377 243.714 121.323 243.472 121.323C243.299 121.323 243.149 121.351 243.023 121.405C242.897 121.459 242.799 121.533 242.729 121.628C242.66 121.721 242.626 121.827 242.626 121.947C242.626 122.047 242.649 122.134 242.696 122.206C242.744 122.279 242.806 122.34 242.883 122.389C242.961 122.437 243.045 122.478 243.134 122.511C243.224 122.542 243.309 122.569 243.392 122.589L243.803 122.696C243.938 122.729 244.076 122.774 244.217 122.83C244.359 122.886 244.49 122.96 244.61 123.052C244.731 123.144 244.829 123.258 244.903 123.394C244.978 123.53 245.016 123.692 245.016 123.882C245.016 124.121 244.954 124.333 244.831 124.518C244.708 124.703 244.531 124.849 244.297 124.956C244.066 125.063 243.785 125.117 243.456 125.117C243.14 125.117 242.867 125.067 242.636 124.967C242.406 124.867 242.225 124.724 242.095 124.541C241.964 124.355 241.892 124.136 241.879 123.882H242.517C242.529 124.034 242.579 124.161 242.665 124.263C242.753 124.363 242.865 124.438 243.001 124.487C243.138 124.535 243.288 124.559 243.451 124.559C243.631 124.559 243.791 124.531 243.931 124.475C244.072 124.417 244.184 124.337 244.265 124.236C244.345 124.133 244.386 124.013 244.386 123.876C244.386 123.751 244.35 123.649 244.279 123.569C244.209 123.489 244.114 123.424 243.993 123.371C243.873 123.319 243.738 123.273 243.587 123.233L243.089 123.098C242.752 123.006 242.484 122.87 242.286 122.692C242.09 122.514 241.992 122.278 241.992 121.984C241.992 121.741 242.058 121.529 242.19 121.348C242.321 121.167 242.5 121.026 242.725 120.926C242.95 120.824 243.204 120.774 243.486 120.774C243.772 120.774 244.024 120.824 244.242 120.924C244.461 121.024 244.634 121.162 244.761 121.338C244.887 121.512 244.953 121.712 244.958 121.939H244.345ZM247.089 125.111C246.778 125.111 246.51 125.044 246.284 124.911C246.061 124.777 245.888 124.588 245.766 124.345C245.645 124.101 245.585 123.815 245.585 123.487C245.585 123.163 245.645 122.877 245.766 122.63C245.888 122.383 246.058 122.19 246.276 122.052C246.496 121.913 246.752 121.844 247.046 121.844C247.224 121.844 247.397 121.873 247.565 121.932C247.732 121.991 247.883 122.084 248.016 122.21C248.149 122.337 248.254 122.501 248.331 122.702C248.407 122.903 248.446 123.146 248.446 123.433V123.651H245.932V123.19H247.843C247.843 123.028 247.81 122.885 247.744 122.76C247.678 122.634 247.585 122.534 247.466 122.461C247.348 122.389 247.209 122.352 247.05 122.352C246.877 122.352 246.726 122.395 246.597 122.48C246.47 122.564 246.371 122.674 246.301 122.809C246.232 122.944 246.198 123.09 246.198 123.248V123.608C246.198 123.819 246.235 123.999 246.309 124.147C246.385 124.296 246.49 124.409 246.624 124.487C246.759 124.564 246.916 124.602 247.095 124.602C247.212 124.602 247.319 124.586 247.415 124.553C247.511 124.519 247.594 124.468 247.664 124.401C247.734 124.333 247.787 124.25 247.824 124.152L248.407 124.257C248.36 124.428 248.276 124.578 248.156 124.707C248.036 124.835 247.886 124.934 247.705 125.006C247.525 125.076 247.32 125.111 247.089 125.111ZM250.605 121.885V122.379H248.878V121.885H250.605ZM249.341 121.128H249.956V124.119C249.956 124.238 249.974 124.328 250.01 124.388C250.046 124.447 250.091 124.488 250.148 124.51C250.205 124.53 250.268 124.541 250.335 124.541C250.384 124.541 250.428 124.537 250.465 124.53C250.502 124.523 250.531 124.518 250.551 124.514L250.662 125.022C250.627 125.036 250.576 125.05 250.51 125.063C250.444 125.079 250.362 125.087 250.263 125.088C250.101 125.091 249.95 125.062 249.81 125.002C249.67 124.941 249.557 124.848 249.471 124.722C249.384 124.595 249.341 124.437 249.341 124.246V121.128Z" fill="#C0DECD"/>
<path d="M266.257 122.939C266.257 123.389 266.175 123.776 266.01 124.1C265.846 124.423 265.62 124.671 265.333 124.845C265.048 125.018 264.723 125.105 264.359 125.105C263.994 125.105 263.668 125.018 263.382 124.845C263.096 124.671 262.871 124.422 262.706 124.098C262.542 123.774 262.459 123.388 262.459 122.939C262.459 122.489 262.542 122.103 262.706 121.78C262.871 121.456 263.096 121.208 263.382 121.035C263.668 120.861 263.994 120.774 264.359 120.774C264.723 120.774 265.048 120.861 265.333 121.035C265.62 121.208 265.846 121.456 266.01 121.78C266.175 122.103 266.257 122.489 266.257 122.939ZM265.627 122.939C265.627 122.596 265.572 122.307 265.461 122.072C265.351 121.836 265.2 121.658 265.008 121.537C264.817 121.415 264.601 121.354 264.359 121.354C264.116 121.354 263.9 121.415 263.709 121.537C263.518 121.658 263.367 121.836 263.256 122.072C263.146 122.307 263.091 122.596 263.091 122.939C263.091 123.282 263.146 123.572 263.256 123.808C263.367 124.042 263.518 124.221 263.709 124.343C263.9 124.464 264.116 124.524 264.359 124.524C264.601 124.524 264.817 124.464 265.008 124.343C265.2 124.221 265.351 124.042 265.461 123.808C265.572 123.572 265.627 123.282 265.627 122.939ZM269.004 123.736V121.885H269.621V125.047H269.016V124.499H268.983C268.911 124.668 268.794 124.809 268.633 124.921C268.474 125.033 268.276 125.088 268.038 125.088C267.835 125.088 267.656 125.044 267.499 124.954C267.344 124.864 267.222 124.73 267.133 124.553C267.045 124.376 267.001 124.157 267.001 123.896V121.885H267.616V123.822C267.616 124.038 267.676 124.209 267.796 124.337C267.915 124.464 268.07 124.528 268.261 124.528C268.376 124.528 268.491 124.499 268.605 124.442C268.72 124.384 268.815 124.297 268.891 124.18C268.968 124.064 269.005 123.915 269.004 123.736ZM271.924 121.885V122.379H270.197V121.885H271.924ZM270.661 121.128H271.276V124.119C271.276 124.238 271.294 124.328 271.33 124.388C271.365 124.447 271.411 124.488 271.467 124.51C271.525 124.53 271.588 124.541 271.655 124.541C271.704 124.541 271.747 124.537 271.784 124.53C271.822 124.523 271.85 124.518 271.871 124.514L271.982 125.022C271.946 125.036 271.896 125.05 271.83 125.063C271.764 125.079 271.682 125.087 271.583 125.088C271.421 125.091 271.27 125.062 271.13 125.002C270.99 124.941 270.877 124.848 270.79 124.722C270.704 124.595 270.661 124.437 270.661 124.246V121.128Z" fill="#C0DECD"/>
<path d="M287.982 120.831V125.047H287.397L285.255 121.955H285.215V125.047H284.579V120.831H285.168L287.313 123.927H287.352V120.831H287.982ZM290.192 125.111C289.896 125.111 289.637 125.043 289.416 124.907C289.195 124.771 289.024 124.581 288.902 124.337C288.78 124.093 288.719 123.807 288.719 123.48C288.719 123.152 288.78 122.866 288.902 122.62C289.024 122.374 289.195 122.184 289.416 122.048C289.637 121.912 289.896 121.844 290.192 121.844C290.489 121.844 290.748 121.912 290.969 122.048C291.189 122.184 291.361 122.374 291.483 122.62C291.605 122.866 291.666 123.152 291.666 123.48C291.666 123.807 291.605 124.093 291.483 124.337C291.361 124.581 291.189 124.771 290.969 124.907C290.748 125.043 290.489 125.111 290.192 125.111ZM290.194 124.594C290.387 124.594 290.546 124.543 290.672 124.442C290.798 124.34 290.892 124.205 290.952 124.036C291.014 123.867 291.045 123.682 291.045 123.478C291.045 123.277 291.014 123.091 290.952 122.923C290.892 122.752 290.798 122.616 290.672 122.513C290.546 122.41 290.387 122.359 290.194 122.359C290.001 122.359 289.84 122.41 289.713 122.513C289.587 122.616 289.493 122.752 289.431 122.923C289.37 123.091 289.34 123.277 289.34 123.478C289.34 123.682 289.37 123.867 289.431 124.036C289.493 124.205 289.587 124.34 289.713 124.442C289.84 124.543 290.001 124.594 290.194 124.594ZM287.235 128.885L286.088 132.047H285.43L284.281 128.885H284.942L285.742 131.318H285.775L286.574 128.885H287.235Z" fill="#C0DECD"/>
<path d="M308.884 125.047H307.519V120.831H308.927C309.34 120.831 309.695 120.916 309.991 121.084C310.288 121.252 310.515 121.493 310.673 121.807C310.832 122.12 310.912 122.495 310.912 122.933C310.912 123.372 310.831 123.749 310.671 124.065C310.511 124.381 310.281 124.624 309.979 124.794C309.677 124.963 309.312 125.047 308.884 125.047ZM308.155 124.491H308.849C309.17 124.491 309.437 124.431 309.65 124.31C309.862 124.188 310.022 124.012 310.127 123.781C310.233 123.549 310.286 123.266 310.286 122.933C310.286 122.602 310.233 122.322 310.127 122.091C310.023 121.86 309.867 121.685 309.66 121.566C309.453 121.447 309.195 121.387 308.888 121.387H308.155V124.491ZM313.016 125.111C312.704 125.111 312.436 125.044 312.211 124.911C311.987 124.777 311.814 124.588 311.692 124.345C311.571 124.101 311.511 123.815 311.511 123.487C311.511 123.163 311.571 122.877 311.692 122.63C311.814 122.383 311.985 122.19 312.203 122.052C312.422 121.913 312.679 121.844 312.973 121.844C313.151 121.844 313.324 121.873 313.491 121.932C313.659 121.991 313.809 122.084 313.942 122.21C314.075 122.337 314.18 122.501 314.257 122.702C314.334 122.903 314.372 123.146 314.372 123.433V123.651H311.859V123.19H313.769C313.769 123.028 313.736 122.885 313.67 122.76C313.605 122.634 313.512 122.534 313.393 122.461C313.275 122.389 313.136 122.352 312.977 122.352C312.804 122.352 312.653 122.395 312.524 122.48C312.396 122.564 312.297 122.674 312.227 122.809C312.159 122.944 312.124 123.09 312.124 123.248V123.608C312.124 123.819 312.162 123.999 312.236 124.147C312.311 124.296 312.416 124.409 312.551 124.487C312.685 124.564 312.842 124.602 313.022 124.602C313.139 124.602 313.245 124.586 313.341 124.553C313.437 124.519 313.52 124.468 313.59 124.401C313.66 124.333 313.714 124.25 313.751 124.152L314.333 124.257C314.287 124.428 314.203 124.578 314.082 124.707C313.963 124.835 313.812 124.934 313.631 125.006C313.452 125.076 313.246 125.111 313.016 125.111ZM314.989 125.047V124.625L316.702 122.449V122.42H315.045V121.885H317.47V122.334L315.823 124.483V124.512H317.528V125.047H314.989Z" fill="#C0DECD"/>
<defs>
<filter id="filter0_d_66_887" x="0.0137858" y="0.686282" width="355.972" height="153.492" filterUnits="userSpaceOnUse" color-interpolation-filters="sRGB">
<feFlood flood-opacity="0" result="BackgroundImageFix"/>
<feColorMatrix in="SourceAlpha" type="matrix" values="0 0 0 0 0 0 0 0 0 0 0 0 0 0 0 0 0 0 127 0" result="hardAlpha"/>
<feMorphology radius="0.966131" operator="erode" in="SourceAlpha" result="effect1_dropShadow_66_887"/>
<feOffset dy="1.93226"/>
<feGaussianBlur stdDeviation="4.10606"/>
<feComposite in2="hardAlpha" operator="out"/>
<feColorMatrix type="matrix" values="0 0 0 0 0 0 0 0 0 0 0 0 0 0 0 0 0 0 0.15 0"/>
<feBlend mode="normal" in2="BackgroundImageFix" result="effect1_dropShadow_66_887"/>
<feBlend mode="normal" in="SourceGraphic" in2="effect1_dropShadow_66_887" result="shape"/>
</filter>
<linearGradient id="paint0_linear_66_887" x1="258.787" y1="63.0114" x2="43.7664" y2="151.943" gradientUnits="userSpaceOnUse">
<stop stop-color="#5CCF68" stop-opacity="0.31"/>
<stop offset="0.999727" stop-color="#7753CF" stop-opacity="0.33"/>
</linearGradient>
<linearGradient id="paint1_linear_66_887" x1="322.349" y1="74.3634" x2="62.652" y2="123.335" gradientUnits="userSpaceOnUse">
<stop stop-color="#5CCF68" stop-opacity="0.9"/>
<stop offset="0.235486" stop-color="#65A789" stop-opacity="0.932559"/>
<stop offset="0.663557" stop-color="#7753CF"/>
<stop offset="1" stop-color="#7753CF"/>
</linearGradient>
</defs>
</svg>
