<svg width="16" height="24" viewBox="0 0 16 24" fill="none" xmlns="http://www.w3.org/2000/svg">
<path d="M4.0015 18.0915H11.9886V19.7362H4.0015V18.0915ZM5.59893 21.3809H10.3912V23.0256H5.59893V21.3809ZM7.99507 0C5.87675 0 3.84519 0.866393 2.34731 2.40858C0.849434 3.95077 0.0079343 6.04243 0.0079343 8.22341C-0.0460793 9.41855 0.176282 10.6098 0.656726 11.6992C1.13717 12.7886 1.86197 13.745 2.77148 14.4897C3.5702 15.2544 4.0015 15.6903 4.0015 16.4468H5.59893C5.59893 14.9337 4.71236 14.0867 3.84975 13.2726C3.10324 12.684 2.50829 11.916 2.117 11.0357C1.72572 10.1554 1.55004 9.18981 1.60536 8.22341C1.60536 6.47863 2.27856 4.8053 3.47687 3.57155C4.67517 2.3378 6.30042 1.64468 7.99507 1.64468C9.68973 1.64468 11.315 2.3378 12.5133 3.57155C13.7116 4.8053 14.3848 6.47863 14.3848 8.22341C14.4392 9.19052 14.2623 10.1566 13.8696 11.0369C13.4769 11.9172 12.8804 12.6849 12.1324 13.2726C11.2778 14.0949 10.3912 14.9173 10.3912 16.4468H11.9886C11.9886 15.6903 12.412 15.2544 13.2187 14.4814C14.1276 13.738 14.852 12.7831 15.3325 11.6951C15.8129 10.6071 16.0356 9.41728 15.9822 8.22341C15.9822 7.1435 15.7756 6.07416 15.3742 5.07645C14.9728 4.07874 14.3845 3.1722 13.6428 2.40858C12.9012 1.64497 12.0207 1.03924 11.0516 0.62597C10.0826 0.212705 9.04396 0 7.99507 0Z" fill="#757575"/>
</svg>
